HIERARCHY
ROOT Hips
{
	OFFSET 0.000000 0.000000 0.000000
	CHANNELS 6 Xposition Yposition Zposition Xrotation Yrotation Zrotation
	JOINT LeftUpLeg_virtual
	{
		OFFSET 0.000000 0.000000 0.000000
		CHANNELS 3 Xrotation Yrotation Zrotation
		JOINT LeftUpLeg
		{
			OFFSET 13.026900 -6.336304 -1.092800
			CHANNELS 3 Xrotation Yrotation Zrotation
			JOINT LeftLeg
			{
				OFFSET 0.524474 -46.096886 9.782700
				CHANNELS 3 Xrotation Yrotation Zrotation
				JOINT LeftFoot
				{
					OFFSET -0.524474 -53.427422 -12.948200
					CHANNELS 3 Xrotation Yrotation Zrotation
					JOINT LeftToeBase
					{
						OFFSET 0.192200 -14.009700 16.364100
						CHANNELS 3 Xrotation Yrotation Zrotation
						JOINT LeftToe_End
						{
							OFFSET -1.784700 -0.561700 9.474800
							CHANNELS 3 Xrotation Yrotation Zrotation
							End Site
							{
								OFFSET 0 0 0
							}
						}
					}
				}
			}
		}
	}
	JOINT RightUpLeg_virtual
	{
		OFFSET 0.000000 0.000000 0.000000
		CHANNELS 3 Xrotation Yrotation Zrotation
		JOINT RightUpLeg
		{
			OFFSET -12.883000 -6.336304 -1.092800
			CHANNELS 3 Xrotation Yrotation Zrotation
			JOINT RightLeg
			{
				OFFSET -0.524587 -46.096825 9.782800
				CHANNELS 3 Xrotation Yrotation Zrotation
				JOINT RightFoot
				{
					OFFSET 0.524587 -53.427383 -12.948300
					CHANNELS 3 Xrotation Yrotation Zrotation
					JOINT RightToeBase
					{
						OFFSET -0.192200 -14.009700 16.364100
						CHANNELS 3 Xrotation Yrotation Zrotation
						JOINT RightToe_End
						{
							OFFSET 1.784700 -0.561700 9.474800
							CHANNELS 3 Xrotation Yrotation Zrotation
							End Site
							{
								OFFSET 0 0 0
							}
						}
					}
				}
			}
		}
	}
	JOINT Spine_virtual
	{
		OFFSET 0.000000 0.000000 0.000000
		CHANNELS 3 Xrotation Yrotation Zrotation
		JOINT Spine
		{
			OFFSET 0.072000 7.257294 -0.789700
			CHANNELS 3 Xrotation Yrotation Zrotation
			JOINT Spine1
			{
				OFFSET 0.000000 12.508769 -0.658067
				CHANNELS 3 Xrotation Yrotation Zrotation
				JOINT Spine1_split
				{
					OFFSET 0.000000 12.508769 -0.658067
					CHANNELS 3 Xrotation Yrotation Zrotation
					JOINT Spine2
					{
						OFFSET 0.000000 12.508769 -0.658067
						CHANNELS 3 Xrotation Yrotation Zrotation
						JOINT Neck_virtual
						{
							OFFSET 0.000000 0.000000 0.000000
							CHANNELS 3 Xrotation Yrotation Zrotation
							JOINT Neck
							{
								OFFSET 0.000000 14.033295 7.520400
								CHANNELS 3 Xrotation Yrotation Zrotation
								JOINT Head
								{
									OFFSET 0.000000 8.198502 5.703100
									CHANNELS 3 Xrotation Yrotation Zrotation
									JOINT HeadTop_End
									{
										OFFSET 0.000000 17.760803 13.332701
										CHANNELS 3 Xrotation Yrotation Zrotation
										End Site
										{
											OFFSET 0 0 0
										}
									}
								}
							}
						}
						JOINT LeftShoulder_virtual
						{
							OFFSET 0.000000 0.000000 0.000000
							CHANNELS 3 Xrotation Yrotation Zrotation
							JOINT LeftShoulder
							{
								OFFSET 6.292450 5.785301 -0.669000
								CHANNELS 3 Xrotation Yrotation Zrotation
								JOINT LeftShoulder_split
								{
									OFFSET 6.292450 5.785301 -0.669000
									CHANNELS 3 Xrotation Yrotation Zrotation
									JOINT LeftArm
									{
										OFFSET 13.907140 -6.093903 1.965100
										CHANNELS 3 Xrotation Yrotation Zrotation
										JOINT LeftForeArm
										{
											OFFSET 34.140198 0.000000 0.000000
											CHANNELS 3 Xrotation Yrotation Zrotation
											JOINT LeftHand
											{
												OFFSET 40.960209 0.000000 0.000000
												CHANNELS 3 Xrotation Yrotation Zrotation
												End Site
												{
													OFFSET 0 0 0
												}
											}
										}
									}
								}
							}
						}
						JOINT RightShoulder_virtual
						{
							OFFSET 0.000000 0.000000 0.000000
							CHANNELS 3 Xrotation Yrotation Zrotation
							JOINT RightShoulder
							{
								OFFSET -6.292450 5.785301 -0.669000
								CHANNELS 3 Xrotation Yrotation Zrotation
								JOINT RightShoulder_split
								{
									OFFSET -6.292450 5.785301 -0.669000
									CHANNELS 3 Xrotation Yrotation Zrotation
									JOINT RightArm
									{
										OFFSET -13.907140 -6.093903 1.965100
										CHANNELS 3 Xrotation Yrotation Zrotation
										JOINT RightForeArm
										{
											OFFSET -34.140198 0.000000 0.000000
											CHANNELS 3 Xrotation Yrotation Zrotation
											JOINT RightHand
											{
												OFFSET -40.960209 0.000000 0.000000
												CHANNELS 3 Xrotation Yrotation Zrotation
												End Site
												{
													OFFSET 0 0 0
												}
											}
										}
									}
								}
							}
						}
					}
				}
			}
		}
	}
}
MOTION
Frames: 11
Frame Time: 0.03333333
-13.448460 157.450638 1.539234 0.000000 0.000000 0.000000 0.972616 -24.700682 -0.537842 -136.790534 -37.501744 27.474772 121.390835 -23.853654 -6.785020 40.069633 -15.182906 -21.668743 -5.533891 -0.535587 3.913397 0.000000 0.000000 0.000000 0.947360 -30.010663 -1.307618 -91.891118 35.802451 -67.709380 110.488077 21.413102 11.022894 19.105354 29.638735 34.574298 -2.313087 -0.623739 0.354877 0.000000 0.000000 0.000000 3.955161 -28.108527 0.171215 30.910585 7.971898 -1.152410 5.275023 1.195241 1.073833 -1.799068 2.317578 0.279835 0.000000 0.000000 0.000000 8.157323 1.034459 2.223700 5.849963 0.352985 3.559188 -3.865856 35.072898 -23.260539 0.000000 0.000000 0.000000 6.813374 1.791838 0.600444 1.070790 -3.030059 9.819111 1.818491 -3.232572 2.665108 -36.634058 20.155101 17.841315 -2.783933 -9.102390 -1.964069 0.000000 0.000000 0.000000 8.325911 1.642010 0.980536 -3.390018 -4.675763 -30.110804 2.759394 -2.375536 -1.423582 -53.030063 8.060111 -6.220586 1.674954 22.058779 -1.731869 0.000000 0.000000 0.000000 
-14.049384 154.662842 1.913902 0.000000 0.000000 0.000000 1.200554 -24.864508 -0.766213 -140.586863 -36.602844 27.385888 124.464447 -24.026133 -5.832804 46.301555 -18.449710 -14.996273 -4.676007 -0.537229 3.997031 0.000000 0.000000 0.000000 1.777711 -27.981094 -1.356263 -84.353116 28.515598 -68.748627 104.658169 19.630867 11.154776 15.046833 26.912929 35.839823 -5.124755 -0.880342 0.540874 0.000000 0.000000 0.000000 4.781548 -27.673756 0.064908 30.419641 9.600640 -1.249872 5.157162 1.546586 0.906060 -0.939491 1.922309 1.322168 0.000000 0.000000 0.000000 8.723811 0.982072 2.045014 7.209951 -0.030848 3.835447 -3.857208 34.639011 -23.013846 0.000000 0.000000 0.000000 6.629199 1.958030 0.266344 1.119937 -2.920927 9.498185 0.852660 -3.413255 0.664823 -35.481231 17.251917 23.612370 -2.717810 -6.967299 -1.305678 0.000000 0.000000 0.000000 8.874618 1.719478 0.672694 -2.989503 -2.419416 -30.830313 1.864654 -1.585233 -1.453711 -45.215736 3.642005 -15.000146 2.216005 23.560471 -2.028816 0.000000 0.000000 0.000000 
-14.474879 148.510666 0.943989 0.000000 0.000000 0.000000 0.586320 -24.563331 -1.292188 -139.457846 -34.012457 29.257966 126.011540 -22.860066 -4.547432 47.774755 -20.110621 -8.536257 -5.392832 -0.437558 3.578503 0.000000 0.000000 0.000000 1.721135 -24.961770 -1.839089 -76.295610 20.868798 -62.932940 100.989087 17.194919 9.336665 6.586753 21.354713 35.119965 -3.318575 -0.970847 0.724428 0.000000 0.000000 0.000000 3.712180 -26.028256 -0.649173 29.664195 10.530286 -1.132438 4.972300 1.804246 0.573130 0.636532 1.892890 1.698871 0.000000 0.000000 0.000000 8.980808 0.901158 1.654740 7.972815 -0.134446 4.171091 -3.493267 34.195014 -22.551423 0.000000 0.000000 0.000000 6.401764 2.003654 -0.063998 1.064106 -2.736715 9.225790 0.191549 -4.114005 -1.440164 -33.590570 13.613939 27.545431 -2.308246 -4.576668 -0.546851 0.000000 0.000000 0.000000 9.144486 1.634818 0.222060 -1.962295 0.700199 -29.934701 1.170592 -0.292016 -1.430292 -37.922867 -0.631224 -20.719350 2.052040 26.966683 -2.052511 0.000000 0.000000 0.000000 
-14.388854 140.319183 0.075787 0.000000 0.000000 0.000000 -0.746837 -23.832036 -2.144168 -134.302611 -29.834143 31.807368 125.696299 -20.503984 -3.402744 46.451522 -20.491870 -3.496227 -8.029980 -0.199464 2.773374 0.000000 0.000000 0.000000 1.046013 -21.602336 -2.549840 -68.135877 14.675703 -51.927753 100.086983 14.656573 6.188973 -2.570265 15.431021 32.046220 -0.318320 -0.879457 0.548645 0.000000 0.000000 0.000000 1.766528 -23.497232 -1.561487 28.383910 10.478521 -0.814566 4.578136 1.927430 0.209068 1.213077 2.239246 1.241021 0.000000 0.000000 0.000000 8.764901 0.829946 1.208698 8.253548 0.102717 4.532940 -2.704405 33.870519 -22.001849 0.000000 0.000000 0.000000 5.923505 1.992252 -0.304017 0.890170 -2.531470 9.046130 -0.044657 -4.806259 -2.831310 -31.762606 11.689575 29.147515 -1.713950 -1.730919 0.063145 0.000000 0.000000 0.000000 8.866680 1.457841 -0.165558 -0.700946 3.758526 -27.667001 1.304224 0.663198 -1.285393 -33.483790 -4.776011 -22.132273 1.292305 30.488428 -1.927781 0.000000 0.000000 0.000000 
-13.729173 131.683105 -1.297234 0.000000 0.000000 0.000000 -2.274419 -23.610521 -3.077948 -125.197490 -24.426585 33.758258 122.723705 -16.823750 -2.916809 43.841758 -18.639929 0.089948 -10.775423 0.096391 1.586945 0.000000 0.000000 0.000000 0.050500 -19.272504 -3.332975 -60.812753 10.678897 -39.447532 99.337766 12.690191 3.005185 -8.823529 11.505313 28.349429 -0.266843 -0.738683 0.025875 0.000000 0.000000 0.000000 -0.244877 -20.892287 -2.498252 26.419877 9.474923 -0.438160 3.956872 1.877640 -0.050284 2.245884 1.845042 0.430902 0.000000 0.000000 0.000000 7.970672 0.795376 0.837513 8.245085 0.443022 4.774599 -1.708050 33.421345 -21.237565 0.000000 0.000000 0.000000 5.365971 1.922576 -0.351422 0.752466 -2.039144 8.935772 0.079706 -4.601316 -3.215193 -29.950277 12.851886 27.687360 -1.211307 0.912134 0.283981 0.000000 0.000000 0.000000 8.026504 1.280816 -0.394942 0.355804 5.875513 -24.447148 1.264313 1.408203 -1.096802 -31.975503 -9.803972 -19.667729 0.127863 32.206582 -1.829634 0.000000 0.000000 0.000000 
-12.847848 123.734955 -2.134727 0.000000 0.000000 0.000000 -3.624800 -23.727729 -3.939441 -111.580566 -17.650879 33.790500 116.141479 -11.520882 -3.452246 39.075803 -14.123968 2.321560 -11.013208 0.469431 0.179354 0.000000 0.000000 0.000000 -1.022856 -18.561886 -4.051353 -54.069246 7.780630 -28.533073 95.857703 11.453735 0.605149 -11.314901 9.760390 24.892375 -3.756764 -0.549879 -0.505923 0.000000 0.000000 0.000000 -1.519861 -18.675682 -3.506688 24.057495 7.787409 -0.072384 3.236092 1.721247 -0.138106 3.016263 1.794857 -0.102284 0.000000 0.000000 0.000000 6.770346 0.789409 0.574282 8.015255 0.829878 4.889326 -0.484683 32.876357 -20.324736 0.000000 0.000000 0.000000 4.771376 1.784954 -0.276375 0.633534 -1.067909 8.689472 0.268527 -3.937608 -2.309125 -27.231688 17.841103 21.931705 -1.002321 2.441454 0.100336 0.000000 0.000000 0.000000 6.846283 1.139009 -0.482329 1.104792 6.541166 -20.610799 1.225131 1.319730 -1.368280 -31.678636 -16.213834 -13.427734 -1.076957 31.342536 -1.921251 0.000000 0.000000 0.000000 
-11.689647 116.983353 -3.501461 0.000000 0.000000 0.000000 -4.773691 -23.853596 -4.743391 -93.304585 -11.000600 30.591990 105.383877 -5.038836 -3.662642 30.779462 -8.397017 2.502374 -9.191573 0.728173 -1.008598 0.000000 0.000000 0.000000 -2.178018 -19.024249 -4.587661 -47.431289 5.663627 -20.272717 87.821275 10.534459 -0.492852 -11.260737 9.144575 20.374236 -9.462179 -0.375469 -0.597617 0.000000 0.000000 0.000000 -1.537818 -17.608262 -4.567643 21.682511 5.804578 0.314629 2.541268 1.491276 -0.084841 2.742166 1.762952 0.156172 0.000000 0.000000 0.000000 5.441865 0.769204 0.321292 7.360682 1.151366 4.817167 0.545160 32.179156 -19.139653 0.000000 0.000000 0.000000 4.251785 1.566274 -0.241325 0.513862 0.335518 8.070088 -0.124873 -2.713355 -1.126343 -22.538166 24.833374 10.642091 -1.033034 2.533276 -0.348529 0.000000 0.000000 0.000000 5.602653 1.016832 -0.500080 1.530830 5.624696 -16.795177 1.251040 1.107131 -1.818728 -29.420989 -23.896633 -3.086087 -1.829255 28.676611 -2.319793 0.000000 0.000000 0.000000 
-10.483091 111.007874 -5.523663 0.000000 0.000000 0.000000 -5.421802 -23.106163 -5.352218 -72.265655 -7.414144 23.814843 91.082205 1.518969 -1.976154 18.532895 -3.300027 0.334307 -7.685817 0.750576 -1.507948 0.000000 0.000000 0.000000 -3.376657 -20.570112 -5.079294 -39.856749 5.053027 -14.210877 74.373547 9.616427 -0.279957 -11.666551 8.164673 14.528089 -14.662352 -0.365650 -0.042152 0.000000 0.000000 0.000000 -0.778862 -17.516684 -5.543313 20.084634 3.906323 0.615613 2.047278 1.227505 -0.003444 2.558544 2.055539 0.817017 0.000000 0.000000 0.000000 4.296317 0.711676 -0.051906 5.940434 1.367119 4.637438 0.955307 31.271591 -17.722673 0.000000 0.000000 0.000000 3.995999 1.200138 -0.359797 0.398521 2.090396 7.153694 -0.744196 -1.479423 -0.310617 -15.016567 30.162901 -6.016187 -1.361431 0.624546 -0.951181 0.000000 0.000000 0.000000 4.672044 0.869455 -0.580901 1.767989 3.634771 -13.323060 0.955483 1.276992 -2.690917 -21.811039 -30.530082 12.371914 -1.993246 26.591178 -2.760407 0.000000 0.000000 0.000000 
-9.235709 104.373474 -7.956104 0.000000 0.000000 0.000000 -5.215696 -20.715159 -5.771554 -54.233099 -8.591623 16.329847 77.226907 5.544103 1.802042 5.046920 -0.070637 -4.164190 -8.243593 0.648467 -1.017697 0.000000 0.000000 0.000000 -4.279954 -21.232063 -5.557752 -30.865324 6.485604 -9.755657 59.096436 8.593656 0.567175 -16.466934 6.224765 7.795970 -16.907268 -0.546334 0.877368 0.000000 0.000000 0.000000 0.248262 -17.463942 -6.015076 20.034367 2.297735 0.608420 1.976851 0.926616 -0.061487 1.556163 2.593870 1.457748 0.000000 0.000000 0.000000 3.644019 0.559250 -0.552672 3.479574 1.478917 4.531410 0.401548 30.334332 -16.267127 0.000000 0.000000 0.000000 3.882078 0.705976 -0.719601 0.208774 3.571641 6.155049 -1.570087 -0.801212 -0.051978 -7.497007 30.625182 -24.930197 -1.740782 -2.879327 -1.506070 0.000000 0.000000 0.000000 4.248281 0.641679 -0.755556 1.885517 1.416234 -10.495000 0.971504 1.844578 -3.423748 -9.350675 -31.779176 32.043395 -1.572260 26.332416 -3.022704 0.000000 0.000000 0.000000 
-8.228011 95.952095 -10.683270 0.000000 0.000000 0.000000 -4.528709 -17.405019 -5.893982 -44.934367 -12.935928 11.315112 70.629101 6.281887 5.023350 -5.725912 1.302662 -9.250115 -10.825568 0.498063 -0.205688 0.000000 0.000000 0.000000 -4.761584 -20.232967 -5.898399 -20.587307 10.174315 -7.219674 47.541224 7.617319 1.817806 -27.763010 4.016189 0.818476 -16.313803 -0.851940 1.538995 0.000000 0.000000 0.000000 0.971240 -16.920689 -5.629945 21.895129 0.998513 0.001809 2.395434 0.533999 -0.297589 0.700617 2.718384 1.630667 0.000000 0.000000 0.000000 3.491515 0.314431 -1.138397 -0.028691 1.422741 4.553666 -1.423450 29.255312 -14.919836 0.000000 0.000000 0.000000 4.001010 0.118549 -1.231395 -0.052745 4.331492 5.404880 -2.151800 -0.058907 -0.258644 -4.806178 26.026994 -40.562513 -2.029114 -7.699700 -1.926838 0.000000 0.000000 0.000000 4.416162 0.324186 -0.969832 1.899469 -0.204171 -8.479227 0.745135 2.771484 -3.950596 1.751447 -25.673588 50.117678 -0.751236 28.340533 -3.009009 0.000000 0.000000 0.000000 
-7.260608 85.200218 -12.683544 0.000000 0.000000 0.000000 -3.456272 -14.166857 -5.490597 -45.923149 -17.032204 8.841761 75.526524 6.497906 4.776927 -12.517935 1.590296 -10.443403 -12.375766 0.430261 -0.252918 0.000000 0.000000 0.000000 -4.732148 -17.495623 -5.766882 -9.299055 14.977181 -7.529198 45.142161 7.453186 3.831305 -44.694361 2.709375 -5.010252 -12.604329 -1.164242 1.604027 0.000000 0.000000 0.000000 0.571317 -15.988397 -4.538407 25.657561 -0.029675 -1.495381 3.292751 0.123476 -0.614243 0.650398 2.447790 1.204613 0.000000 0.000000 0.000000 3.781551 0.007180 -1.635384 -4.063823 1.139292 4.769408 -4.217728 28.005893 -14.028601 0.000000 0.000000 0.000000 4.407056 -0.438268 -1.671793 -0.355930 4.089522 5.033782 -2.426585 0.623068 -0.430806 -8.095223 18.381504 -50.635252 -2.030882 -13.525083 -2.095551 0.000000 0.000000 0.000000 5.099287 0.000713 -1.141410 1.806860 -0.693786 -7.250161 0.116819 3.080031 -4.093683 5.913928 -15.272117 61.952336 0.029084 32.216828 -2.682717 0.000000 0.000000 0.000000 
